<svg width="38" height="39" viewBox="0 0 38 39" fill="none" xmlns="http://www.w3.org/2000/svg">
<path d="M14.25 31.0833C6.33329 33.4583 6.33329 27.125 3.16663 26.3333M25.3333 35.8333V29.7058C25.3927 28.9508 25.2907 28.1919 25.0341 27.4793C24.7775 26.7668 24.3721 26.1171 23.845 25.5733C28.8166 25.0192 34.0416 23.135 34.0416 14.49C34.0412 12.2794 33.1909 10.1536 31.6666 8.5525C32.3884 6.61847 32.3374 4.48072 31.5241 2.58333C31.5241 2.58333 29.6558 2.02916 25.3333 4.92666C21.7043 3.94313 17.8789 3.94313 14.25 4.92666C9.92746 2.02916 8.05913 2.58333 8.05913 2.58333C7.24589 4.48072 7.19485 6.61847 7.91663 8.5525C6.38099 10.1654 5.52979 12.3105 5.54163 14.5375C5.54163 23.1192 10.7666 25.0033 15.7383 25.6208C15.2174 26.1591 14.8156 26.8011 14.5592 27.5049C14.3028 28.2087 14.1974 28.9586 14.25 29.7058V35.8333" stroke="#6DC05C" stroke-width="4" stroke-linecap="round" stroke-linejoin="round"/>
</svg>
