<svg width="91" height="90" viewBox="0 0 91 90" fill="none" xmlns="http://www.w3.org/2000/svg">
<g clip-path="url(#clip0_150_258)">
<path fill-rule="evenodd" clip-rule="evenodd" d="M45.5 0C70.3535 0 90.5 20.6547 90.5 46.1382C90.5 66.5187 77.621 83.8078 59.7515 89.9143C57.47 90.3688 56.66 88.928 56.66 87.6995C56.66 86.1785 56.714 81.2106 56.714 75.0366C56.714 70.7346 55.274 67.9268 53.6585 66.4958C63.68 65.3529 74.21 61.451 74.21 43.73C74.21 38.69 72.464 34.5772 69.575 31.3462C70.043 30.1807 71.5865 25.4878 69.134 19.1338C69.134 19.1338 65.363 17.8975 56.7725 23.8645C53.177 22.843 49.325 22.329 45.5 22.311C41.675 22.329 37.8275 22.843 34.2365 23.8645C25.637 17.8975 21.857 19.1338 21.857 19.1338C19.4135 25.4878 20.957 30.1807 21.4205 31.3462C18.545 34.5772 16.7855 38.69 16.7855 43.73C16.7855 61.406 27.293 65.3677 37.2875 66.5332C36.0005 67.6852 34.835 69.7174 34.43 72.7009C31.865 73.8799 25.349 75.9204 21.335 68.8689C21.335 68.8689 18.9545 64.4358 14.4365 64.1118C14.4365 64.1118 10.049 64.0535 14.1305 66.9155C14.1305 66.9155 17.078 68.333 19.1255 73.6655C19.1255 73.6655 21.767 81.9004 34.286 79.1104C34.3085 82.9669 34.349 86.6015 34.349 87.6995C34.349 88.919 33.521 90.3462 31.2755 89.9187C13.3925 83.8212 0.5 66.5232 0.5 46.1382C0.5 20.6547 20.651 0 45.5 0Z" fill="#6DC05C"/>
</g>
<defs>
<clipPath id="clip0_150_258">
<rect width="90" height="90" fill="white" transform="translate(0.5)"/>
</clipPath>
</defs>
</svg>
