<svg width="38" height="38" viewBox="0 0 38 38" fill="none" xmlns="http://www.w3.org/2000/svg">
<path fill-rule="evenodd" clip-rule="evenodd" d="M19 28.5C24.2467 28.5 28.5 24.2467 28.5 19C28.5 13.7533 24.2467 9.5 19 9.5C13.7533 9.5 9.5 13.7533 9.5 19C9.5 24.2467 13.7533 28.5 19 28.5ZM19 25.3333C22.4977 25.3333 25.3333 22.4977 25.3333 19C25.3333 15.5022 22.4977 12.6667 19 12.6667C15.5022 12.6667 12.6667 15.5022 12.6667 19C12.6667 22.4977 15.5022 25.3333 19 25.3333Z" fill="#6DC05C"/>
<path d="M28.5 7.91666C27.6255 7.91666 26.9166 8.62555 26.9166 9.5C26.9166 10.3744 27.6255 11.0833 28.5 11.0833C29.3744 11.0833 30.0833 10.3744 30.0833 9.5C30.0833 8.62555 29.3744 7.91666 28.5 7.91666Z" fill="#6DC05C"/>
<path fill-rule="evenodd" clip-rule="evenodd" d="M2.61881 6.77043C1.58337 8.80259 1.58337 11.4628 1.58337 16.7833V21.2167C1.58337 26.5371 1.58337 29.1975 2.61881 31.2295C3.52961 33.0171 4.98292 34.4704 6.77047 35.3812C8.80263 36.4167 11.4629 36.4167 16.7834 36.4167H21.2167C26.5372 36.4167 29.1975 36.4167 31.2295 35.3812C33.0171 34.4704 34.4705 33.0171 35.3812 31.2295C36.4167 29.1975 36.4167 26.5371 36.4167 21.2167V16.7833C36.4167 11.4628 36.4167 8.80259 35.3812 6.77043C34.4705 4.98288 33.0171 3.52957 31.2295 2.61877C29.1975 1.58334 26.5372 1.58334 21.2167 1.58334H16.7834C11.4629 1.58334 8.80263 1.58334 6.77047 2.61877C4.98292 3.52957 3.52961 4.98288 2.61881 6.77043ZM21.2167 4.75H16.7834C14.0709 4.75 12.2269 4.75247 10.8017 4.86891C9.41334 4.98234 8.70337 5.18794 8.2081 5.44029C7.01641 6.0475 6.04753 7.01637 5.44033 8.20807C5.18797 8.70333 4.98238 9.4133 4.86895 10.8016C4.75251 12.2269 4.75004 14.0708 4.75004 16.7833V21.2167C4.75004 23.9292 4.75251 25.773 4.86895 27.1983C4.98238 28.5868 5.18797 29.2967 5.44033 29.792C6.04753 30.9836 7.01641 31.9525 8.2081 32.5597C8.70337 32.812 9.41334 33.0177 10.8017 33.1311C12.2269 33.2475 14.0709 33.25 16.7834 33.25H21.2167C23.9293 33.25 25.7731 33.2475 27.1984 33.1311C28.5868 33.0177 29.2968 32.812 29.792 32.5597C30.9837 31.9525 31.9525 30.9836 32.5597 29.792C32.8121 29.2967 33.0178 28.5868 33.1311 27.1983C33.2475 25.773 33.25 23.9292 33.25 21.2167V16.7833C33.25 14.0708 33.2475 12.2269 33.1311 10.8016C33.0178 9.4133 32.8121 8.70333 32.5597 8.20807C31.9525 7.01637 30.9837 6.0475 29.792 5.44029C29.2968 5.18794 28.5868 4.98234 27.1984 4.86891C25.7731 4.75247 23.9293 4.75 21.2167 4.75Z" fill="#6DC05C"/>
</svg>
