<svg width="91" height="90" viewBox="0 0 91 90" fill="none" xmlns="http://www.w3.org/2000/svg">
<path d="M24.875 30C27.9816 30 30.5 27.4816 30.5 24.375C30.5 21.2684 27.9816 18.75 24.875 18.75C21.7684 18.75 19.25 21.2684 19.25 24.375C19.25 27.4816 21.7684 30 24.875 30Z" fill="#6DC05C"/>
<path d="M19.25 37.5C19.25 35.4289 20.9289 33.75 23 33.75H26.75C28.821 33.75 30.5 35.4289 30.5 37.5V67.5C30.5 69.5711 28.821 71.25 26.75 71.25H23C20.9289 71.25 19.25 69.5711 19.25 67.5V37.5Z" fill="#6DC05C"/>
<path d="M41.75 71.25H45.5C47.5711 71.25 49.25 69.5711 49.25 67.5V50.625C49.25 45 60.5 41.25 60.5 48.75V67.5015C60.5 69.5726 62.1789 71.25 64.25 71.25H68C70.0711 71.25 71.75 69.5711 71.75 67.5V45C71.75 37.5 66.125 33.75 58.625 33.75C51.125 33.75 49.25 39.375 49.25 39.375V37.5C49.25 35.4289 47.5711 33.75 45.5 33.75H41.75C39.6789 33.75 38 35.4289 38 37.5V67.5C38 69.5711 39.6789 71.25 41.75 71.25Z" fill="#6DC05C"/>
<path fill-rule="evenodd" clip-rule="evenodd" d="M75.5 3.75C81.7134 3.75 86.75 8.78681 86.75 15V75C86.75 81.2134 81.7134 86.25 75.5 86.25H15.5C9.28681 86.25 4.25 81.2134 4.25 75V15C4.25 8.78681 9.28681 3.75 15.5 3.75H75.5ZM75.5 11.25C77.5711 11.25 79.25 12.929 79.25 15V75C79.25 77.0711 77.5711 78.75 75.5 78.75H15.5C13.429 78.75 11.75 77.0711 11.75 75V15C11.75 12.929 13.429 11.25 15.5 11.25H75.5Z" fill="#6DC05C"/>
</svg>
