<svg width="91" height="90" viewBox="0 0 91 90" fill="none" xmlns="http://www.w3.org/2000/svg">
<path d="M79.25 30L65.897 37.4183C58.4525 41.5541 54.7303 43.6222 50.7883 44.433C47.2993 45.1504 43.7007 45.1504 40.2117 44.433C36.2699 43.6222 32.5476 41.5541 25.103 37.4183L11.75 30M23.75 71.25H67.25C71.4504 71.25 73.5508 71.25 75.155 70.4325C76.5661 69.7136 77.7136 68.5661 78.4325 67.155C79.25 65.5508 79.25 63.4504 79.25 59.25V30.75C79.25 26.5496 79.25 24.4494 78.4325 22.8451C77.7136 21.4338 76.5661 20.2865 75.155 19.5675C73.5508 18.75 71.4504 18.75 67.25 18.75H23.75C19.5496 18.75 17.4494 18.75 15.8451 19.5675C14.4338 20.2865 13.2865 21.4338 12.5675 22.8451C11.75 24.4494 11.75 26.5496 11.75 30.75V59.25C11.75 63.4504 11.75 65.5508 12.5675 67.155C13.2865 68.5661 14.4338 69.7136 15.8451 70.4325C17.4494 71.25 19.5496 71.25 23.75 71.25Z" stroke="#6DC05C" stroke-width="5" stroke-linecap="round" stroke-linejoin="round"/>
</svg>
