<svg width="91" height="107" viewBox="0 0 91 107" fill="none" xmlns="http://www.w3.org/2000/svg">
<path fill-rule="evenodd" clip-rule="evenodd" d="M8 27C8 19.6822 13.0368 13.75 19.25 13.75H71.75C77.9634 13.75 83 19.6822 83 27V66.75C83 74.068 77.9634 80 71.75 80H49.25V84.4167H56.75C58.8211 84.4167 60.5 86.394 60.5 88.8333C60.5 91.2727 58.8211 93.25 56.75 93.25H34.25C32.1789 93.25 30.5 91.2727 30.5 88.8333C30.5 86.394 32.1789 84.4167 34.25 84.4167H41.75V80H19.25C13.0368 80 8 74.068 8 66.75V27ZM19.25 22.5833C17.179 22.5833 15.5 24.5608 15.5 27V66.75C15.5 69.1893 17.179 71.1667 19.25 71.1667H71.75C73.8211 71.1667 75.5 69.1893 75.5 66.75V27C75.5 24.5608 73.8211 22.5833 71.75 22.5833H19.25Z" fill="#6DC05C"/>
</svg>
