<svg width="91" height="91" viewBox="0 0 91 91" fill="none" xmlns="http://www.w3.org/2000/svg">
<path d="M79.25 30.5L65.897 37.9183C58.4525 42.0541 54.7303 44.1222 50.7883 44.933C47.2993 45.6504 43.7007 45.6504 40.2117 44.933C36.2699 44.1222 32.5476 42.0541 25.103 37.9183L11.75 30.5M23.75 71.75H67.25C71.4504 71.75 73.5508 71.75 75.155 70.9325C76.5661 70.2136 77.7136 69.0661 78.4325 67.655C79.25 66.0508 79.25 63.9504 79.25 59.75V31.25C79.25 27.0496 79.25 24.9494 78.4325 23.3451C77.7136 21.9338 76.5661 20.7865 75.155 20.0675C73.5508 19.25 71.4504 19.25 67.25 19.25H23.75C19.5496 19.25 17.4494 19.25 15.8451 20.0675C14.4338 20.7865 13.2865 21.9338 12.5675 23.3451C11.75 24.9494 11.75 27.0496 11.75 31.25V59.75C11.75 63.9504 11.75 66.0508 12.5675 67.655C13.2865 69.0661 14.4338 70.2136 15.8451 70.9325C17.4494 71.75 19.5496 71.75 23.75 71.75Z" stroke="#6DC05C" stroke-width="8" stroke-linecap="round" stroke-linejoin="round"/>
</svg>
