<svg width="91" height="90" viewBox="0 0 91 90" fill="none" xmlns="http://www.w3.org/2000/svg">
<path fill-rule="evenodd" clip-rule="evenodd" d="M45.5 67.5C57.9264 67.5 68 57.4264 68 45C68 32.5736 57.9264 22.5 45.5 22.5C33.0736 22.5 23 32.5736 23 45C23 57.4264 33.0736 67.5 45.5 67.5ZM45.5 60C53.7841 60 60.5 53.2841 60.5 45C60.5 36.7157 53.7841 30 45.5 30C37.2157 30 30.5 36.7157 30.5 45C30.5 53.2841 37.2157 60 45.5 60Z" fill="#6DC05C"/>
<path d="M68 18.75C65.9289 18.75 64.25 20.4289 64.25 22.5C64.25 24.5711 65.9289 26.25 68 26.25C70.0711 26.25 71.75 24.5711 71.75 22.5C71.75 20.4289 70.0711 18.75 68 18.75Z" fill="#6DC05C"/>
<path fill-rule="evenodd" clip-rule="evenodd" d="M6.70235 16.0352C4.25 20.8482 4.25 27.1488 4.25 39.75V50.25C4.25 62.8511 4.25 69.1519 6.70235 73.9646C8.8595 78.1984 12.3015 81.6405 16.5352 83.7975C21.3482 86.25 27.6488 86.25 40.25 86.25H50.75C63.3511 86.25 69.6519 86.25 74.4646 83.7975C78.6984 81.6405 82.1405 78.1984 84.2975 73.9646C86.75 69.1519 86.75 62.8511 86.75 50.25V39.75C86.75 27.1488 86.75 20.8482 84.2975 16.0352C82.1405 11.8015 78.6984 8.3595 74.4646 6.20235C69.6519 3.75 63.3511 3.75 50.75 3.75H40.25C27.6488 3.75 21.3482 3.75 16.5352 6.20235C12.3015 8.3595 8.8595 11.8015 6.70235 16.0352ZM50.75 11.25H40.25C33.8257 11.25 29.4584 11.2558 26.0828 11.5316C22.7947 11.8003 21.1131 12.2872 19.9402 12.8849C17.1177 14.323 14.823 16.6177 13.3849 19.4402C12.7872 20.6131 12.3003 22.2947 12.0316 25.5828C11.7558 28.9584 11.75 33.3257 11.75 39.75V50.25C11.75 56.6745 11.7558 61.0414 12.0316 64.4171C12.3003 67.7055 12.7872 69.387 13.3849 70.56C14.823 73.3822 17.1177 75.6769 19.9402 77.115C21.1131 77.7127 22.7947 78.1999 26.0828 78.4684C29.4584 78.744 33.8257 78.75 40.25 78.75H50.75C57.1745 78.75 61.5414 78.744 64.9171 78.4684C68.2055 78.1999 69.887 77.7127 71.06 77.115C73.8822 75.6769 76.1769 73.3822 77.615 70.56C78.2127 69.387 78.6999 67.7055 78.9684 64.4171C79.244 61.0414 79.25 56.6745 79.25 50.25V39.75C79.25 33.3257 79.244 28.9584 78.9684 25.5828C78.6999 22.2947 78.2127 20.6131 77.615 19.4402C76.1769 16.6177 73.8822 14.323 71.06 12.8849C69.887 12.2872 68.2055 11.8003 64.9171 11.5316C61.5414 11.2558 57.1745 11.25 50.75 11.25Z" fill="#6DC05C"/>
</svg>
