<svg width="60" height="61" viewBox="0 0 60 61" fill="none" xmlns="http://www.w3.org/2000/svg">
<g clip-path="url(#clip0_69_242)">
<path d="M0 0.5H60V60.5H0V0.5Z" fill="#F7DF1E"/>
<path d="M15.7762 50.6404L20.3678 47.8616C21.2536 49.4322 22.0595 50.7611 23.9923 50.7611C25.8451 50.7611 27.0132 50.0363 27.0132 47.2173V28.0458H32.6516V47.297C32.6516 53.137 29.2284 55.7952 24.234 55.7952C19.7235 55.7952 17.1052 53.4591 15.7761 50.6399" fill="black"/>
<path d="M35.7144 50.0362L40.3054 47.378C41.514 49.3517 43.0847 50.8015 45.8636 50.8015C48.1999 50.8015 49.6897 49.6334 49.6897 48.0224C49.6897 46.0892 48.1593 45.4044 45.5816 44.2771L44.1724 43.6725C40.1043 41.941 37.4057 39.7661 37.4057 35.1746C37.4057 30.9456 40.6277 27.7234 45.6624 27.7234C49.2469 27.7234 51.8245 28.9721 53.677 32.2345L49.2869 35.0536C48.3203 33.3219 47.2734 32.6374 45.6625 32.6374C44.0111 32.6374 42.9639 33.6845 42.9639 35.0536C42.9639 36.7453 44.0111 37.4301 46.4274 38.4774L47.8369 39.0814C52.6298 41.1356 55.3284 43.2297 55.3284 47.9418C55.3284 53.0169 51.3411 55.7956 45.9845 55.7956C40.7487 55.7956 37.3654 53.2987 35.7144 50.0362Z" fill="black"/>
</g>
<defs>
<clipPath id="clip0_69_242">
<rect width="60" height="60" fill="white" transform="translate(0 0.5)"/>
</clipPath>
</defs>
</svg>
