<svg width="60" height="61" viewBox="0 0 60 61" fill="none" xmlns="http://www.w3.org/2000/svg">
<g clip-path="url(#clip0_69_261)">
<path d="M18.3661 43.2932H16.7418C16.6843 40.5514 16.5261 37.9738 16.2675 35.5584H16.253L13.7799 43.2932H12.5432L10.0848 35.5584H10.0707C9.88832 37.8774 9.77344 40.4557 9.72573 43.2932H8.24512C8.34054 39.8427 8.58035 36.6077 8.96361 33.5881H10.9769L13.3201 40.7194H13.3345L15.6921 33.5881H17.6184C18.0403 37.125 18.2895 40.3603 18.3661 43.2932ZM25.4107 36.1328C24.7493 39.7218 23.8767 42.3296 22.7938 43.9574C21.9501 45.2105 21.0257 45.8376 20.0191 45.8376C19.7507 45.8376 19.4195 45.7566 19.0272 45.5959V44.7305C19.219 44.7582 19.444 44.7738 19.7027 44.7738C20.1729 44.7738 20.5508 44.6445 20.8389 44.3853C21.1836 44.0695 21.3559 43.7145 21.3559 43.3218C21.3559 43.0525 21.2216 42.5019 20.9535 41.6682L19.1709 36.1325H20.7667L22.0461 40.2727C22.3337 41.2128 22.4536 41.8691 22.4055 42.243C23.1052 40.3744 23.5939 38.3369 23.8723 36.1322H25.4107V36.1328Z" fill="#5D87A1"/>
<path d="M47.033 43.2933H42.4188V33.5882H43.971V42.0987H47.033V43.2933ZM41.211 43.5278L39.4268 42.6474C39.585 42.5174 39.7363 42.3768 39.8726 42.2139C40.6309 41.3231 41.0092 40.0057 41.0092 38.2608C41.0092 35.05 39.7492 33.4438 37.2284 33.4438C35.9923 33.4438 35.028 33.8513 34.3384 34.6664C33.5807 35.5579 33.2024 36.8706 33.2024 38.606C33.2024 40.312 33.5377 41.5635 34.2085 42.3573C34.8221 43.0764 35.7471 43.4365 36.9842 43.4365C37.4456 43.4365 37.869 43.38 38.2548 43.266L40.5776 44.6183L41.211 43.5278ZM35.4314 41.3513C35.0384 40.7191 34.8419 39.704 34.8419 38.3044C34.8419 35.8608 35.5842 34.6376 37.0705 34.6376C37.8474 34.6376 38.4168 34.9301 38.7809 35.5139C39.1732 36.1471 39.3707 37.1531 39.3707 38.5332C39.3707 40.9969 38.6277 42.2289 37.1424 42.2289C36.3652 42.2293 35.7958 41.9377 35.4314 41.3513ZM32.526 40.6033C32.526 41.4263 32.2241 42.1015 31.6208 42.6304C31.0168 43.1571 30.207 43.4211 29.1922 43.4211C28.243 43.4211 27.3227 43.1179 26.4319 42.5146L26.849 41.6812C27.6156 42.0651 28.3096 42.2559 28.9326 42.2559C29.5174 42.2559 29.9744 42.1263 30.3059 41.8692C30.637 41.6112 30.8345 41.2493 30.8345 40.7917C30.8345 40.215 30.4324 39.7222 29.6947 39.3095C29.0146 38.9359 27.6542 38.155 27.6542 38.155C26.9168 37.6176 26.5477 37.0407 26.5477 36.0902C26.5477 35.3036 26.823 34.6686 27.3739 34.1856C27.9254 33.7006 28.6369 33.4589 29.5092 33.4589C30.4101 33.4589 31.229 33.7003 31.9667 34.178L31.5925 35.0117C30.9616 34.7437 30.3388 34.6096 29.7246 34.6096C29.2271 34.6096 28.8429 34.7292 28.5757 34.9693C28.3064 35.2085 28.1404 35.5146 28.1404 35.89C28.1404 36.4638 28.5509 36.9628 29.3087 37.3838C29.998 37.7579 31.3923 38.5524 31.3923 38.5524C32.1484 39.0888 32.526 39.6604 32.526 40.6033Z" fill="#F8981D"/>
<path d="M48.9815 30.3376C48.043 30.3137 47.3163 30.4082 46.7065 30.6662C46.5304 30.7365 46.2504 30.7365 46.2259 30.9591C46.321 31.0532 46.332 31.2052 46.4145 31.3351C46.5552 31.5696 46.8003 31.885 47.0241 32.0495C47.2699 32.2378 47.5166 32.4243 47.7752 32.5885C48.2313 32.8706 48.7483 33.0348 49.1928 33.316C49.4517 33.4796 49.7091 33.6911 49.9684 33.8672C50.0958 33.9611 50.1774 34.1133 50.3428 34.172V34.1362C50.26 34.0308 50.2364 33.8782 50.1551 33.7608L49.803 33.4212C49.4627 32.9642 49.0399 32.5652 48.5838 32.2375C48.2084 31.9789 47.3873 31.6273 47.235 31.1948L47.2112 31.1709C47.4692 31.1468 47.7752 31.0532 48.0204 30.9814C48.4193 30.8762 48.7831 30.9001 49.1924 30.7949C49.3808 30.7478 49.5675 30.6888 49.7565 30.6307V30.525C49.5443 30.3137 49.393 30.0331 49.1698 29.8335C48.5728 29.3177 47.9149 28.8133 47.235 28.3911C46.8709 28.156 46.4026 28.0048 46.015 27.8048C45.8753 27.7342 45.6399 27.6993 45.5576 27.5819C45.3473 27.3239 45.229 26.9843 45.0764 26.6789C44.7374 26.0345 44.4082 25.3194 44.1156 24.638C43.9041 24.181 43.7754 23.7246 43.5174 23.3018C42.3089 21.3086 40.9965 20.1014 38.9795 18.9164C38.546 18.6697 38.0303 18.5646 37.4794 18.4352L36.5996 18.3888C36.4119 18.3066 36.2239 18.0834 36.06 17.9779C35.3908 17.556 33.6679 16.6417 33.1757 17.8489C32.8587 18.612 33.6446 19.3622 33.9146 19.7492C34.1139 20.0179 34.3722 20.3236 34.5116 20.6287C34.5941 20.828 34.6174 21.0396 34.6999 21.2502C34.8876 21.7662 35.0631 22.3403 35.3098 22.8218C35.4385 23.0673 35.5788 23.3253 35.7433 23.5475C35.8375 23.6775 36.0013 23.7349 36.0371 23.9468C35.8735 24.1803 35.8607 24.5328 35.7668 24.826C35.345 26.1509 35.5098 27.7923 36.1077 28.7659C36.2948 29.0591 36.7411 29.7045 37.3382 29.4571C37.8667 29.2462 37.7497 28.5779 37.9016 27.9919C37.9364 27.8503 37.9135 27.7574 37.9838 27.6645V27.6874C38.1474 28.0154 38.3125 28.3315 38.4641 28.6605C38.8279 29.2346 39.4613 29.8328 39.9889 30.2305C40.2699 30.4427 40.4924 30.8056 40.8443 30.9352V30.9001H40.8211C40.7498 30.7949 40.6456 30.7478 40.5521 30.6662C40.3405 30.455 40.1063 30.1969 39.9422 29.9628C39.4506 29.3058 39.0156 28.5785 38.6295 27.828C38.4405 27.4639 38.2776 27.0659 38.1254 26.7024C38.0544 26.5621 38.0544 26.3506 37.9367 26.2799C37.7603 26.5376 37.5033 26.7608 37.3746 27.0766C37.1514 27.5816 37.1282 28.2028 37.0453 28.8488L36.9992 28.8714C36.6256 28.7775 36.4957 28.3911 36.3538 28.0631C36.0026 27.2301 35.9435 25.8929 36.2483 24.9318C36.3299 24.686 36.6831 23.912 36.5421 23.6778C36.4715 23.4534 36.2367 23.3256 36.108 23.1489C35.9567 22.9267 35.791 22.6454 35.6855 22.3987C35.4043 21.7424 35.2627 21.0151 34.9598 20.3591C34.8183 20.0533 34.5725 19.7369 34.3735 19.4554C34.15 19.139 33.9042 18.9161 33.7275 18.541C33.6691 18.412 33.5872 18.2011 33.681 18.0608C33.704 17.9666 33.7517 17.9315 33.8452 17.9079C33.9971 17.7795 34.4312 17.9428 34.5835 18.0134C35.0182 18.1892 35.3817 18.3533 35.7445 18.5994C35.9087 18.7171 36.0848 18.94 36.2954 18.9987H36.5421C36.9166 19.0803 37.3388 19.0213 37.6913 19.1274C38.3125 19.327 38.8753 19.6199 39.38 19.9359C40.9158 20.9099 42.1824 22.2939 43.0374 23.9468C43.1777 24.2161 43.2374 24.4628 43.3654 24.7438C43.6125 25.3188 43.9179 25.9052 44.163 26.468C44.4094 27.0188 44.6442 27.5813 44.9961 28.039C45.1715 28.2851 45.8765 28.4141 46.1926 28.5431C46.4265 28.6482 46.7906 28.7418 47.0015 28.8708C47.4005 29.1165 47.7978 29.3987 48.1729 29.669C48.3597 29.8096 48.9467 30.1028 48.9815 30.3376ZM37.0205 20.1475C36.8586 20.1458 36.6972 20.1657 36.5406 20.2065V20.2301H36.5632C36.6576 20.4175 36.8218 20.5474 36.9389 20.7109C37.0334 20.899 37.1153 21.0854 37.2079 21.2731L37.2305 21.2499C37.3959 21.1328 37.4781 20.9451 37.4781 20.6635C37.4069 20.5807 37.3959 20.4997 37.3366 20.4175C37.2675 20.3001 37.1153 20.2417 37.0205 20.1475Z" fill="#5D87A1"/>
<path d="M50.0985 43.2917H50.3414V42.1027H49.977L49.6797 42.9141L49.3568 42.1027H49.0058V43.2917H49.2353V42.3871H49.2482L49.5865 43.2917H49.7614L50.0985 42.3871V43.2917ZM48.1414 43.2917H48.3985V42.3042H48.7349V42.1024H47.7908V42.3042H48.1408L48.1414 43.2917Z" fill="#F8981D"/>
</g>
<defs>
<clipPath id="clip0_69_261">
<rect width="60" height="60" fill="white" transform="translate(0 0.5)"/>
</clipPath>
</defs>
</svg>
