<svg width="58" height="49" viewBox="0 0 58 49" fill="none" xmlns="http://www.w3.org/2000/svg">
<path fill-rule="evenodd" clip-rule="evenodd" d="M45.3132 15.4132C46.3739 11.234 47.7072 3.48402 43.007 0.856548C38.3287 -1.75947 32.2408 3.2533 29.0261 6.26221C25.8208 3.28329 19.5618 -1.70806 14.8656 0.92776C10.1891 3.55255 11.6312 11.174 12.7154 15.3794C8.35308 16.5807 0.875 19.1682 0.875 24.4548C0.875 29.7264 8.3453 32.5415 12.6818 33.7417C11.5936 37.9704 10.2237 45.4829 14.9061 48.1019C19.6199 50.7372 25.8594 45.8647 29.1039 42.8229C32.3392 45.8495 38.3686 50.7539 43.0479 48.1276C47.7418 45.4931 46.5193 37.847 45.4349 33.6172C49.6387 32.4144 57.125 29.6606 57.125 24.4548C57.125 19.2191 49.6068 16.6106 45.3132 15.4132ZM44.7804 31.3756C44.0684 29.1905 43.1075 26.8668 41.9321 24.4664C43.0541 22.1227 43.9777 19.829 44.6698 17.6579C47.8173 18.5427 54.7222 20.5649 54.7222 24.4548C54.7222 28.3812 48.0961 30.4226 44.7804 31.3756ZM41.8438 46.1112C38.3525 48.0706 33.1664 43.3805 30.7771 41.1517C32.3622 39.4707 33.9463 37.5166 35.4922 35.3467C38.2117 35.1129 40.7806 34.7304 43.1105 34.2082C43.8736 37.2001 45.3504 44.1431 41.8438 46.1112ZM16.1068 46.0833C12.6152 44.1312 14.2111 37.4274 15.0117 34.3124C17.3156 34.8067 19.8661 35.1622 22.592 35.3765C24.1481 37.4997 25.778 39.4514 27.4205 41.1607C25.3912 43.064 19.6147 48.0444 16.1068 46.0833ZM3.27779 24.4548C3.27779 20.5137 10.1414 18.5062 13.3607 17.6236C14.0647 19.8434 14.988 22.1645 16.1023 24.5116C14.9736 26.8936 14.0371 29.2514 13.3266 31.4975C10.2569 30.6455 3.27779 28.3983 3.27779 24.4548ZM16.0694 2.94414C19.5753 0.976548 25.0151 5.76843 27.3423 7.92524C25.7083 9.62663 24.0933 11.5636 22.5506 13.6747C19.9051 13.9124 17.3727 14.2942 15.0445 14.8057C14.1711 11.4138 12.5673 4.9096 16.0694 2.94414ZM37.2112 16.2071C39.0059 16.4266 40.7255 16.7187 42.3401 17.0761C41.8554 18.5825 41.2512 20.1577 40.5397 21.7724C39.5082 19.8749 38.4011 18.0155 37.2112 16.2071ZM29.0268 9.59019C30.1351 10.7543 31.2451 12.0543 32.3371 13.4647C30.1222 13.3631 27.9037 13.3627 25.6888 13.4632C26.7817 12.0659 27.9012 10.7678 29.0268 9.59019ZM17.4809 21.7707C16.7812 20.1616 16.1825 18.5795 15.6935 17.0516C17.2985 16.7034 19.01 16.4187 20.7931 16.2027C19.5999 18.0072 18.4946 19.8659 17.4809 21.7707ZM20.8443 32.8732C19.0023 32.6739 17.2649 32.4037 15.6604 32.0651C16.1571 30.5103 16.769 28.8941 17.4837 27.2502C18.5112 29.1749 19.6334 31.0516 20.8443 32.8732ZM29.0934 39.4841C27.9545 38.2925 26.8184 36.9746 25.709 35.5571C27.9365 35.6418 30.1683 35.642 32.3956 35.5456C31.3003 36.989 30.1942 38.3088 29.0934 39.4841ZM40.5626 27.1666C41.3144 28.8282 41.9482 30.4357 42.4516 31.9642C40.8206 32.3251 39.0597 32.6157 37.2044 32.8316C38.4031 30.9888 39.5279 29.1005 40.5626 27.1666ZM34.1512 33.1139C30.7439 33.35 27.3155 33.3474 23.9071 33.1332C21.9704 30.3903 20.2464 27.5056 18.7582 24.5109C20.2393 21.5223 21.9508 18.6432 23.8783 15.9046C27.2891 15.6547 30.7209 15.6539 34.1317 15.9061C36.0427 18.6446 37.7516 21.5161 39.2669 24.4777C37.7696 27.4647 36.0491 30.3496 34.1512 33.1139ZM41.8068 2.87487C45.3136 4.83601 43.7527 11.8011 42.9866 14.8299C40.6529 14.3077 38.1187 13.9192 35.4656 13.6777C33.9198 11.5438 32.3184 9.60346 30.7107 7.92404C33.0678 5.72077 38.3339 0.932916 41.8068 2.87487Z" fill="#53C1DE"/>
</svg>
