<svg width="60" height="61" viewBox="0 0 60 61" fill="none" xmlns="http://www.w3.org/2000/svg">
<path d="M30 12.4531C22 12.4531 17 16.4531 15 24.4531C18 20.4531 21.5 18.9531 25.5 19.9531C27.7822 20.5237 29.4134 22.1793 31.219 24.0121C34.1603 26.9977 37.5646 30.4531 45 30.4531C53 30.4531 58 26.4531 60 18.4531C57 22.4531 53.5 23.9531 49.5 22.9531C47.2178 22.3826 45.5866 20.7269 43.781 18.8941C40.8397 15.9086 37.4354 12.4531 30 12.4531ZM15 30.4531C7 30.4531 2 34.4531 0 42.4531C3 38.4531 6.5 36.9531 10.5 37.9531C12.7822 38.5237 14.4134 40.1793 16.219 42.0121C19.1603 44.9977 22.5646 48.4531 30 48.4531C38 48.4531 43 44.4531 45 36.4531C42 40.4531 38.5 41.9531 34.5 40.9531C32.2178 40.3826 30.5866 38.7269 28.781 36.8941C25.8397 33.9086 22.4354 30.4531 15 30.4531Z" fill="url(#paint0_linear_69_237)"/>
<defs>
<linearGradient id="paint0_linear_69_237" x1="-166.667" y1="1164.45" x2="5015.32" y2="4152.26" gradientUnits="userSpaceOnUse">
<stop stop-color="#2298BD"/>
<stop offset="1" stop-color="#0ED7B5"/>
</linearGradient>
</defs>
</svg>
